<?xml version="1.0" encoding="UTF-8"?>
<!DOCTYPE svg PUBLIC "-//W3C//DTD SVG 1.1//EN" "http://www.w3.org/Graphics/SVG/1.1/DTD/svg11.dtd">
<svg xmlns="http://www.w3.org/2000/svg" version="1.1" width="625px" height="205px" style="shape-rendering:geometricPrecision; text-rendering:geometricPrecision; image-rendering:optimizeQuality; fill-rule:evenodd; clip-rule:evenodd" xmlns:xlink="http://www.w3.org/1999/xlink">
<g><path style="opacity:0.909" fill="#323232" d="M 279.5,29.5 C 284.833,29.5 290.167,29.5 295.5,29.5C 295.127,34.7457 294.46,39.9123 293.5,45C 301.159,45.4997 308.826,45.6664 316.5,45.5C 315.996,49.5066 315.83,53.5066 316,57.5C 319.673,52.3336 323.506,47.3336 327.5,42.5C 332.034,44.2607 336.034,46.7607 339.5,50C 333.624,59.8795 326.957,69.2128 319.5,78C 325.825,78.4995 332.158,78.6662 338.5,78.5C 338.526,83.7948 337.859,88.9615 336.5,94C 325.5,94.3333 314.5,94.6667 303.5,95C 293.549,103.973 282.882,111.973 271.5,119C 269.515,123.365 269.182,127.865 270.5,132.5C 286.724,125.144 301.89,116.144 316,105.5C 319.419,108.812 322.253,112.645 324.5,117C 323.561,118.944 322.227,120.611 320.5,122C 304.547,133.814 287.213,143.314 268.5,150.5C 266.884,156.816 268.884,161.65 274.5,165C 294.68,169.844 306.847,162.011 311,141.5C 316.088,142.765 321.254,143.765 326.5,144.5C 323.112,170.222 308.445,183.222 282.5,183.5C 260.407,183.678 249.74,172.678 250.5,150.5C 251.138,143.465 251.638,136.465 252,129.5C 246.208,132.991 240.042,135.158 233.5,136C 231.936,131.81 230.269,127.644 228.5,123.5C 237.404,119.048 246.404,114.548 255.5,110C 263.679,105.747 271.346,100.747 278.5,95C 264.171,94.5001 249.837,94.3334 235.5,94.5C 236.167,89.1667 236.833,83.8333 237.5,78.5C 249.833,78.5 262.167,78.5 274.5,78.5C 274.948,72.4685 275.615,66.4685 276.5,60.5C 266.833,60.5 257.167,60.5 247.5,60.5C 247.916,55.5068 248.249,50.5068 248.5,45.5C 258.172,45.6665 267.839,45.4998 277.5,45C 278.565,39.9255 279.231,34.7588 279.5,29.5 Z M 292.5,60.5 C 299.508,60.3337 306.508,60.5004 313.5,61C 309.244,67.2602 304.244,72.9269 298.5,78C 295.854,78.4974 293.187,78.6641 290.5,78.5C 290.904,72.4533 291.571,66.4533 292.5,60.5 Z"/></g>
<g><path style="opacity:0.901" fill="#323232" d="M 411.5,29.5 C 416.511,29.3341 421.511,29.5007 426.5,30C 426.833,30.3333 427.167,30.6667 427.5,31C 426.833,34.3333 426.167,37.6667 425.5,41C 436.833,41.3333 448.167,41.6667 459.5,42C 464.594,43.8402 467.261,47.5068 467.5,53C 466.961,58.2272 466.128,63.3939 465,68.5C 459.928,69.4714 454.762,69.8047 449.5,69.5C 449.987,65.2717 450.653,61.105 451.5,57C 428.836,56.5 406.169,56.3334 383.5,56.5C 383.058,60.1545 382.724,63.8212 382.5,67.5C 377.167,67.5 371.833,67.5 366.5,67.5C 367.303,59.1311 368.303,50.7977 369.5,42.5C 382.821,41.6673 396.154,41.1673 409.5,41C 410.199,37.1703 410.866,33.337 411.5,29.5 Z"/></g>
<g><path style="opacity:0.95" fill="#57beec" d="M 71.5,34.5 C 74.7311,36.2199 77.5644,38.5532 80,41.5C 92.2712,61.0354 103.271,81.3687 113,102.5C 119.039,113.869 127.206,123.369 137.5,131C 148.189,136.745 159.356,137.912 171,134.5C 172.826,135.01 172.993,135.844 171.5,137C 150.023,145.077 130.023,142.41 111.5,129C 105.365,123.866 99.5313,118.366 94,112.5C 87.7,104.265 80.7,96.5984 73,89.5C 72.3623,76.9914 72.529,64.4914 73.5,52C 73.4168,46.0888 72.7501,40.2554 71.5,34.5 Z"/></g>
<g><path style="opacity:0.879" fill="#333333" d="M 501.5,37.5 C 529.169,37.3334 556.835,37.5 584.5,38C 585.022,38.5613 585.355,39.228 585.5,40C 584.724,44.4889 584.057,48.9889 583.5,53.5C 555.833,53.5 528.167,53.5 500.5,53.5C 500.569,48.1463 500.902,42.813 501.5,37.5 Z"/></g>
<g><path style="opacity:0.902" fill="#323232" d="M 428.5,65.5 C 433.179,65.3342 437.845,65.5008 442.5,66C 442.746,69.3494 442.746,72.8494 442.5,76.5C 449.175,76.3337 455.842,76.5004 462.5,77C 462.983,81.4023 462.983,85.9023 462.5,90.5C 455.167,90.5 447.833,90.5 440.5,90.5C 440.726,93.2492 440.393,95.9159 439.5,98.5C 443.112,99.5468 446.779,100.38 450.5,101C 452.667,101.833 454.167,103.333 455,105.5C 454.636,117.412 450.469,127.912 442.5,137C 446.045,141.923 449.712,146.756 453.5,151.5C 450.728,155.805 447.061,158.638 442.5,160C 439.287,155.742 435.953,151.575 432.5,147.5C 425.414,154.035 417.414,158.368 408.5,160.5C 405.783,156.744 403.95,152.744 403,148.5C 410.053,145.391 416.553,141.391 422.5,136.5C 419.894,132.391 416.727,128.724 413,125.5C 414.094,120.725 417.094,117.391 422,115.5C 426.321,118.488 429.988,122.154 433,126.5C 435.366,122.964 437.533,119.297 439.5,115.5C 430.859,114.502 422.192,114.169 413.5,114.5C 413.503,109.473 413.836,104.473 414.5,99.5C 418.167,99.5 421.833,99.5 425.5,99.5C 426.236,88.1412 427.236,76.8078 428.5,65.5 Z"/></g>
<g><path style="opacity:0.915" fill="#313131" d="M 369.5,71.5 C 383.504,71.3334 397.504,71.5001 411.5,72C 412.022,72.5613 412.355,73.228 412.5,74C 411.724,78.4889 411.057,82.9889 410.5,87.5C 396.5,87.5 382.5,87.5 368.5,87.5C 368.98,82.1779 369.313,76.8446 369.5,71.5 Z"/></g>
<g><path style="opacity:0.937" fill="#136cb6" d="M 40.5,81.5 C 49.8643,80.6779 58.1976,83.1779 65.5,89C 79.1413,102.309 92.4746,115.975 105.5,130C 121.632,143.821 140.132,148.654 161,144.5C 162.059,144.63 162.892,145.13 163.5,146C 158.921,148.973 153.921,150.973 148.5,152C 135.382,153.711 122.716,152.045 110.5,147C 93.6186,139.059 76.6186,131.392 59.5,124C 54.5546,113.835 50.3879,103.335 47,92.5C 45.3142,88.4481 43.1475,84.7814 40.5,81.5 Z"/></g>
<g><path style="opacity:0.907" fill="#323232" d="M 487.5,83.5 C 521.5,83.5 555.5,83.5 589.5,83.5C 589.02,88.8221 588.687,94.1554 588.5,99.5C 572.153,99.1672 555.82,99.5006 539.5,100.5C 532.171,120.989 522.838,140.489 511.5,159C 526.956,157.758 542.29,155.425 557.5,152C 553.353,143.54 549.353,135.04 545.5,126.5C 549.176,123.572 553.342,121.238 558,119.5C 563.018,126.196 567.018,133.53 570,141.5C 574.662,152.652 578.828,163.986 582.5,175.5C 578.648,178.595 574.315,180.928 569.5,182.5C 566.942,178.186 564.942,173.519 563.5,168.5C 562.667,168.167 561.833,167.833 561,167.5C 535.617,172.293 510.117,176.293 484.5,179.5C 483.833,174.167 483.167,168.833 482.5,163.5C 486.857,164.204 490.357,162.87 493,159.5C 504.872,140.59 515.039,120.756 523.5,100C 511.171,99.5001 498.838,99.3335 486.5,99.5C 486.569,94.1463 486.902,88.813 487.5,83.5 Z"/></g>
<g><path style="opacity:0.916" fill="#323232" d="M 363.5,98.5 C 379.5,98.5 395.5,98.5 411.5,98.5C 411.66,103.566 411.16,108.566 410,113.5C 407.959,114.423 405.792,114.756 403.5,114.5C 402.021,126.81 400.688,139.143 399.5,151.5C 398.793,158.931 401.793,164.098 408.5,167C 425.318,170.103 440.818,166.937 455,157.5C 458.005,161.506 460.505,165.84 462.5,170.5C 449.192,179.154 434.525,183.154 418.5,182.5C 395.422,184.751 384.422,174.417 385.5,151.5C 386.28,139.145 387.28,126.812 388.5,114.5C 387.167,114.5 385.833,114.5 384.5,114.5C 383.527,133.872 378.693,152.205 370,169.5C 367.039,174.292 363.539,178.625 359.5,182.5C 355.137,180.137 351.804,176.804 349.5,172.5C 357.623,162.921 363.123,151.921 366,139.5C 367.697,131.517 369.197,123.517 370.5,115.5C 367.914,114.52 365.247,114.187 362.5,114.5C 362.472,109.138 362.806,103.805 363.5,98.5 Z"/></g>
<g><path style="opacity:0.946" fill="#136cb7" d="M 205.5,112.5 C 206.5,112.5 207.5,112.5 208.5,112.5C 195.542,144.286 172.542,165.119 139.5,175C 117.565,180.846 96.2312,179.179 75.5,170C 56.5551,159.37 37.8885,148.37 19.5,137C 23.314,132.25 28.314,129.25 34.5,128C 47.7492,125.908 60.4159,127.908 72.5,134C 90.5264,144.183 109.526,151.85 129.5,157C 145.025,158.869 159.358,155.536 172.5,147C 186.112,137.89 197.112,126.39 205.5,112.5 Z"/></g>
</svg>
