<?xml version="1.0" encoding="UTF-8" standalone="no"?>
<svg xmlns="http://www.w3.org/2000/svg" preserveAspectRatio="xMinYMin" viewBox="0 0 237 111">
  <g>
    <path style="fill: #629e3a;" d="m 174.29131,-150.40903 -146.230952,136.485165 0.01182,0.01267 A 50.610408,50.610408 0 0 0 25.678061,57.552702 50.610408,50.610408 0 0 0 47.372683,71.260917 50.610408,50.610408 0 0 1 61.948937,22.384524 l -0.01182,-0.01267 146.230933,-136.485164 z" />
    <path style="fill: #6db33f;" d="M 208.16805,-114.1133 61.937108,22.371873 l 0.01182,0.01267 A 50.610408,50.610408 0 0 0 47.372677,71.260932 50.610408,50.610408 0 0 0 97.209328,60.018128 50.610408,50.610408 0 0 0 98.080322,59.185665 L 243.35837,-76.41021 Z" />
    <path style="fill: #393a3d;" d="m 47.372618,71.260854 a 50.610408,50.610408 0 0 0 12.182133,22.587538 50.610408,50.610408 0 0 0 71.531269,2.465395 50.610408,50.610408 0 0 0 0.871,-0.832448 L 277.23511,-40.114481 243.35837,-76.41021 98.080272,59.185602 a 50.610408,50.610408 0 0 1 -0.870994,0.832463 50.610408,50.610408 0 0 1 -49.836651,11.242804 z" />
  </g>
</svg>
