<svg data-v-70b83f88="" version="1.0" xmlns="http://www.w3.org/2000/svg" xmlns:xlink="http://www.w3.org/1999/xlink" width="100%" height="100%" viewBox="0 0 340.000000 250.000000" preserveAspectRatio="xMidYMid meet" color-interpolation-filters="sRGB" style="margin: auto;">   <g data-v-70b83f88="" fill="#333" class="icon-text-wrapper icon-svg-group iconsvg" transform="translate(140,102.26687049865723)"><g class="iconsvg-imagesvg" transform="matrix(1,0,0,1,0,0)" opacity="1"><g><rect fill="#333" fill-opacity="0" stroke-width="2" x="0" y="0" width="60" height="45.46625645999727" class="image-rect"></rect> <svg x="0" y="0" width="60" height="45.46625645999727" filtersec="colorsb5054194231" class="image-svg-svg primary" style="overflow: visible;"><svg xmlns="http://www.w3.org/2000/svg" viewBox="-0.023412227630615234 0 171.5734100341797 130.01351928710938"><path d="M171.55 70.94a12.54 12.54 0 0 1-1.55 4.24 96.34 96.34 0 0 1-37.4 41.27 91.86 91.86 0 0 1-31.8 12.21 80.34 80.34 0 0 1-47.67-5.73c-9.76-4.27-18.76-9.87-27.69-15.61-6.84-4.38-13.59-8.92-21-12.29-1.18-.53-2.37-1-3.58-1.46-.94-.32-1.27-.58-.29-1.33 7.45-5.71 15.78-8.4 25.2-7.5 7.43.72 14.37 3.14 21.07 6.24C56 95.22 65 99.75 74.16 104a101.4 101.4 0 0 0 24 7.85 52.65 52.65 0 0 0 34.16-4.71A94.33 94.33 0 0 0 171 71.36c0-.1.18-.16.55-.42z" fill="#126db7"></path><path d="M48.07 0a35.56 35.56 0 0 1 4 4.23C58.22 11.44 63 19.54 67.25 28c4.7 9.29 9.2 18.68 13.9 28a118.66 118.66 0 0 0 12.94 20.66c5.49 6.83 12 12.26 20.55 15a40.56 40.56 0 0 0 18.26 1.25c2-.29 3.88-.94 6-1.07a29.37 29.37 0 0 1-6.81 2.16 60.3 60.3 0 0 1-15 2.16c-11.61.18-21.88-3.77-31.21-10.46-7-5-12.94-11.29-18.71-17.69S56 55.2 49.79 49.41a3.28 3.28 0 0 1-1.09-2.35c-.81-9.48.17-18.9.75-28.33a53.7 53.7 0 0 0-1.35-17.5c-.1-.35-.37-.7-.03-1.23z" fill="#57beec"></path><path d="M130.4 101.11a51.73 51.73 0 0 1-13.25 4.67c-9.43 1.86-18.55.26-27.54-2.53-10.09-3.12-19.43-8-28.85-12.64-7.58-3.75-15.17-7.48-23.32-9.86-.76-.22-1-.79-1.33-1.39a168.46 168.46 0 0 1-8.34-21c-.91-2.61-1.82-5.23-2.89-7.78-1.25-3-2.53-6-5.9-7.86a24.23 24.23 0 0 1 9.62.81c5.9 1.63 10.78 5 15.3 9 6.59 5.8 12.16 12.56 18 19.06C68.63 79 75.55 86.29 83.89 92c13.42 9.23 28.16 12.08 44.1 9.16a5.93 5.93 0 0 1 2.41-.05z" fill="#126db7"></path></svg></svg> <!----></g></g> <g transform="translate(67,22.733129501342773)"><g data-gra="path-name" fill-rule="" class="tp-name iconsvg-namesvg" opacity="1" transform="matrix(1,0,0,1,0,0)"><g transform="scale(1)"><g><path d="" transform="translate(0, 0)"></path></g> <!----> <!----> <!----> <!----> <!----> <!----> <!----></g></g> <!----></g></g><defs v-gra="od"></defs></svg>