<svg data-v-70b83f88="" version="1.0" xmlns="http://www.w3.org/2000/svg" xmlns:xlink="http://www.w3.org/1999/xlink" width="100%" height="100%" viewBox="0 0 340.000000 250.000000" preserveAspectRatio="xMidYMid meet" color-interpolation-filters="sRGB" style="margin: auto;">   <g data-v-70b83f88="" fill="#333" class="icon-text-wrapper icon-svg-group iconsvg" transform="translate(112.57500100135803,74.4168701171875)"><g class="iconsvg-imagesvg" transform="matrix(1,0,0,1,27.424999237060547,0)" opacity="1"><g><rect fill="#333" fill-opacity="0" stroke-width="2" x="0" y="0" width="60" height="45.46625645999727" class="image-rect"></rect> <svg x="0" y="0" width="60" height="45.46625645999727" filtersec="colorsb8555848699" class="image-svg-svg primary" style="overflow: visible;"><svg xmlns="http://www.w3.org/2000/svg" viewBox="-0.023412227630615234 0 171.5734100341797 130.01351928710938"><path d="M171.55 70.94a12.54 12.54 0 0 1-1.55 4.24 96.34 96.34 0 0 1-37.4 41.27 91.86 91.86 0 0 1-31.8 12.21 80.34 80.34 0 0 1-47.67-5.73c-9.76-4.27-18.76-9.87-27.69-15.61-6.84-4.38-13.59-8.92-21-12.29-1.18-.53-2.37-1-3.58-1.46-.94-.32-1.27-.58-.29-1.33 7.45-5.71 15.78-8.4 25.2-7.5 7.43.72 14.37 3.14 21.07 6.24C56 95.22 65 99.75 74.16 104a101.4 101.4 0 0 0 24 7.85 52.65 52.65 0 0 0 34.16-4.71A94.33 94.33 0 0 0 171 71.36c0-.1.18-.16.55-.42z" fill="#126db7"></path><path d="M48.07 0a35.56 35.56 0 0 1 4 4.23C58.22 11.44 63 19.54 67.25 28c4.7 9.29 9.2 18.68 13.9 28a118.66 118.66 0 0 0 12.94 20.66c5.49 6.83 12 12.26 20.55 15a40.56 40.56 0 0 0 18.26 1.25c2-.29 3.88-.94 6-1.07a29.37 29.37 0 0 1-6.81 2.16 60.3 60.3 0 0 1-15 2.16c-11.61.18-21.88-3.77-31.21-10.46-7-5-12.94-11.29-18.71-17.69S56 55.2 49.79 49.41a3.28 3.28 0 0 1-1.09-2.35c-.81-9.48.17-18.9.75-28.33a53.7 53.7 0 0 0-1.35-17.5c-.1-.35-.37-.7-.03-1.23z" fill="#57beec"></path><path d="M130.4 101.11a51.73 51.73 0 0 1-13.25 4.67c-9.43 1.86-18.55.26-27.54-2.53-10.09-3.12-19.43-8-28.85-12.64-7.58-3.75-15.17-7.48-23.32-9.86-.76-.22-1-.79-1.33-1.39a168.46 168.46 0 0 1-8.34-21c-.91-2.61-1.82-5.23-2.89-7.78-1.25-3-2.53-6-5.9-7.86a24.23 24.23 0 0 1 9.62.81c5.9 1.63 10.78 5 15.3 9 6.59 5.8 12.16 12.56 18 19.06C68.63 79 75.55 86.29 83.89 92c13.42 9.23 28.16 12.08 44.1 9.16a5.93 5.93 0 0 1 2.41-.05z" fill="#126db7"></path></svg></svg> <!----></g></g> <g transform="translate(0,52.46625900268555)"><g data-gra="path-name" fill-rule="" class="tp-name iconsvg-namesvg" opacity="1" transform="matrix(1,0,0,1,0,0)"><g transform="scale(1)"><g><path d="M4.5-10.6C6.6-11.4 8.65-12.3 10.55-13.25L10.05-8.15C9.1 1.4 13.65 4.3 19.9 4.3 28.3 4.3 32.1-0.15 33.7-7.6L29.1-8.4C28.1-3.8 25.65-0.45 20.6-0.45 16.75-0.45 14.65-1.5 14.65-6.1 21.7-8.75 27.9-12.15 33.15-16.55L30.55-20.15C25.95-16.3 20.95-13.4 15.1-10.9L15.65-16C19.75-18.45 23.35-21.2 26.6-24.2L37-24.2 37.5-28.65 30.9-28.65C33.5-31.65 35.8-34.85 37.85-38.2L34.15-40.2C31.45-35.85 28.5-32.05 25.1-28.65L21.95-28.65 22.65-35.05 29.85-35.05 30.45-39.35 23.1-39.35 23.65-44.4 19.2-44.4 18.65-39.35 9.35-39.35 8.9-35.05 18.2-35.05 17.5-28.65 5.65-28.65 5.2-24.2 20-24.2C15.2-20.5 9.65-17.4 2.9-14.65ZM51.45-32.75L51.85-36.5 74.1-36.5 73.65-32.35 78.1-32.35 78.55-36.7C78.75-39 77.55-40.6 74.8-40.6L65.35-40.6 65.75-44.4 61.25-44.4 60.85-40.6 47.85-40.6 47.05-32.75ZM61.9-17.85L70.75-17.85C70.1-16.15 69.15-14.6 68-13.15 66.8-14.45 65.6-15.75 64.4-16.95L61.7-14.5C62.95-13.2 64.2-11.85 65.4-10.45 63.45-8.8 61.1-7.35 58.45-6.25L60.5-2.85C63.25-3.95 65.75-5.6 67.9-7.55 69.15-6 70.35-4.5 71.45-3.1L74.15-5.65C73-7.1 71.8-8.7 70.45-10.25 72.45-12.6 73.85-15.15 74.65-17.55 75.45-20 74.5-21.85 71.5-21.85L69.75-21.85 70.15-25.45 77-25.45 77.4-29.2 70.5-29.2 70.9-32.75 66.8-32.75 65.7-21.85 62.3-21.85ZM61-30.8L48.05-30.8 47.6-26.55 60.55-26.55ZM44.45 4C48.95-0.8 51.1-7.1 52.25-17.9L54.2-17.9 53.15-8.25C51.95 2.6 56.75 3.95 63.35 3.95 69.25 3.95 73.4 2.75 77.05 0.45L75.1-3.35C71.9-1.1 68.6 0 63.8 0 57.05 0 56.45-2.05 57.35-9.95L58.25-17.9 60.45-17.9 60.9-22.15 46-22.15 45.55-17.9 48.25-17.9C47.35-8.7 45.2-2.4 41.4 1.15ZM116.35-41.75L90.2-41.75 89.7-37.2 115.85-37.2ZM84.7 3.05C93.35 1.8 101.9 0.6 109.8-1 110.45 0.8 111.05 2.5 111.5 3.95L115.45 2.25C113.9-2.85 111.2-9.8 108.05-15.6L104.2-13.75C105.65-11.1 107-8.05 108.2-5.15 103.1-4.1 97.7-3.25 92.25-2.5 96.2-8.6 99.45-15.65 101.8-22.5L117.25-22.5 117.75-27.05 85.7-27.05 85.2-22.5 97.35-22.5C94.8-15.7 91.45-8.8 86.65-1.75 85.8-1.65 85-1.55 84.15-1.45Z" transform="translate(-2.9000000953674316, 44.400001525878906)"></path></g> <!----> <!----> <!----> <!----> <!----> <!----> <!----></g></g> <!----></g></g><defs v-gra="od"></defs></svg>