<?xml version="1.0" standalone="no"?>
<svg version="1.0" xmlns="http://www.w3.org/2000/svg"
 width="715.000000pt" height="697.000000pt" viewBox="0 0 715.000000 697.000000"
 preserveAspectRatio="xMidYMid meet">

<g transform="translate(0.000000,697.000000) scale(0.100000,-0.100000)"
fill="#1366ff" stroke="none">
<path d="M3430 6914 c-243 -21 -310 -28 -410 -45 -1406 -237 -2524 -1268
-2869 -2644 -76 -305 -104 -534 -104 -850 -1 -331 27 -558 104 -867 99 -394
260 -760 479 -1091 139 -209 251 -347 425 -526 298 -305 620 -538 992 -718 83
-40 157 -73 164 -73 6 0 54 -13 105 -30 447 -143 922 -37 1384 309 41 31 129
108 194 171 101 97 124 126 152 185 156 339 146 690 -32 1109 -86 201 -259
461 -433 650 -30 34 -107 96 -171 140 -245 167 -437 321 -543 434 -63 68 -161
219 -187 289 -28 75 -36 175 -20 244 18 78 72 187 120 242 41 46 42 48 35 100
-16 117 -178 620 -206 638 -6 3 -33 9 -60 12 -105 13 -183 69 -227 166 -21 45
-24 64 -20 121 11 155 135 260 292 248 183 -15 301 -192 237 -358 -12 -30 -21
-65 -21 -77 0 -31 82 -185 142 -266 139 -188 300 -276 484 -264 106 6 133 20
164 82 23 45 25 62 25 170 0 77 -7 150 -19 205 -25 116 -113 384 -137 414 -11
13 -41 32 -68 41 -147 49 -233 167 -233 321 0 131 72 243 195 300 78 36 190
34 272 -5 35 -16 78 -48 103 -75 103 -112 118 -244 45 -394 -33 -67 -30 -81
51 -246 182 -368 522 -768 1011 -1187 392 -337 649 -654 849 -1051 156 -310
241 -579 302 -963 10 -61 18 -197 21 -346 6 -260 -3 -395 -38 -593 -11 -60
-18 -110 -16 -112 8 -8 317 317 401 421 189 235 386 566 504 845 130 308 227
689 264 1040 18 173 15 547 -6 720 -132 1110 -735 2061 -1673 2640 -133 82
-374 205 -522 265 -297 121 -671 213 -991 245 -114 11 -438 20 -510 14z"/>
</g>
</svg>
