<?xml version="1.0" encoding="UTF-8"?>
<svg width="380px" height="380px" viewBox="0 0 380 380" version="1.1" xmlns="http://www.w3.org/2000/svg" xmlns:xlink="http://www.w3.org/1999/xlink">
    <title>Logo_Tech UI</title>
    <defs>
        <path d="M254.102941,3.81125902 C258.753019,6.29814839 262.402428,9.94755745 264.889318,14.5976363 C267.376207,19.2477151 268.700577,23.8601327 268.700577,36.5796867 L268.700577,232.12089 C268.700577,244.840444 267.376207,249.452862 264.889318,254.102941 C262.402428,258.753019 258.753019,262.402428 254.102941,264.889318 C249.452862,267.376207 244.840444,268.700577 232.12089,268.700577 L36.5796867,268.700577 C23.8601327,268.700577 19.2477151,267.376207 14.5976363,264.889318 C9.94755745,262.402428 6.29814839,258.753019 3.81125902,254.102941 C1.3626295,249.524401 0.0410249883,244.982374 0.000939791477,232.70222 L1.93547515e-12,36.5796867 C1.93104999e-12,23.8601327 1.32436966,19.2477151 3.81125902,14.5976363 C6.29814839,9.94755745 9.94755745,6.29814839 14.5976363,3.81125902 C19.1761754,1.3626295 23.7182032,0.0410249883 35.9983572,0.000939791474 L232.12089,-6.80643163e-13 C244.840444,-6.82979707e-13 249.452862,1.32436966 254.102941,3.81125902 Z M192.608378,76.0921988 L76.0921988,76.0921988 L76.0921988,192.608378 L192.608378,192.608378 L192.608378,76.0921988 Z" id="path-1"></path>
        <linearGradient x1="50%" y1="6.95213193%" x2="50%" y2="100%" id="linearGradient-3">
            <stop stop-color="#008CFF" offset="0%"></stop>
            <stop stop-color="#0063FF" offset="100%"></stop>
        </linearGradient>
        <linearGradient x1="50%" y1="7.52933084%" x2="50%" y2="90.9153735%" id="linearGradient-4">
            <stop stop-color="#04A6FF" offset="0%"></stop>
            <stop stop-color="#1CC6FF" offset="100%"></stop>
        </linearGradient>
        <radialGradient cx="90.4025396%" cy="31.7002625%" fx="90.4025396%" fy="31.7002625%" r="149.547625%" gradientTransform="translate(0.904025,0.317003),scale(0.283186,1.000000),rotate(134.788412),translate(-0.904025,-0.317003)" id="radialGradient-5">
            <stop stop-color="#51D6FF" offset="0%"></stop>
            <stop stop-color="#04A6FF" offset="100%"></stop>
        </radialGradient>
        <linearGradient x1="0%" y1="0%" x2="83.4936414%" y2="87.8723086%" id="linearGradient-6">
            <stop stop-color="#FF8384" offset="0%"></stop>
            <stop stop-color="#FF4553" offset="100%"></stop>
        </linearGradient>
        <rect id="path-7" x="76.0282054" y="76.0282054" width="116.516179" height="116.516179"></rect>
        <filter x="-7.7%" y="-7.7%" width="115.4%" height="115.4%" filterUnits="objectBoundingBox" id="filter-9">
            <feGaussianBlur stdDeviation="6.5" in="SourceAlpha" result="shadowBlurInner1"></feGaussianBlur>
            <feOffset dx="0" dy="5" in="shadowBlurInner1" result="shadowOffsetInner1"></feOffset>
            <feComposite in="shadowOffsetInner1" in2="SourceAlpha" operator="arithmetic" k2="-1" k3="1" result="shadowInnerInner1"></feComposite>
            <feColorMatrix values="0 0 0 0 0   0 0 0 0 0.423529412   0 0 0 0 1  0 0 0 0.2 0" type="matrix" in="shadowInnerInner1"></feColorMatrix>
        </filter>
    </defs>
    <g id="页面-1" stroke="none" stroke-width="1" fill="none" fill-rule="evenodd">
        <g id="Logo_图形_for-Hitu" transform="translate(-10.000000, -10.000000)">
            <g id="Logo_Tech-UI" transform="translate(10.000000, 10.000000)">
                <g id="Draft1" transform="translate(190.000000, 190.000000) rotate(-45.000000) translate(-190.000000, -190.000000) translate(55.649712, 55.649712)">
                    <mask id="mask-2" fill="white">
                        <use xlink:href="#path-1"></use>
                    </mask>
                    <use id="形状结合" fill="#D8D8D8" xlink:href="#path-1"></use>
                    <g id="编组" mask="url(#mask-2)">
                        <g transform="translate(-0.000000, 0.000000)">
                            <rect id="矩形备份" fill="#0E89FF" transform="translate(131.377937, 230.654477) rotate(-360.000000) translate(-131.377937, -230.654477) " x="70.1474957" y="192.608378" width="122.460882" height="76.0921988"></rect>
                            <path d="M1.89233657e-11,76.0921988 L76.0921988,76.0921988 L76.0921988,268.700577 L21.5547871,268.700577 C14.059718,268.700577 11.3418249,267.920185 8.60173966,266.454771 C5.86165444,264.989357 3.71121953,262.838922 2.24580592,260.098837 C0.780392306,257.358752 1.89215954e-11,254.640859 1.89264125e-11,247.14579 L1.89233657e-11,76.0921988 L1.89233657e-11,76.0921988 Z" id="矩形" fill="url(#linearGradient-3)" transform="translate(38.046099, 172.396388) rotate(-360.000000) translate(-38.046099, -172.396388) "></path>
                            <rect id="矩形备份-5" fill="url(#linearGradient-4)" transform="translate(230.654477, 172.396388) rotate(-360.000000) translate(-230.654477, -172.396388) " x="192.608378" y="76.0921988" width="76.0921988" height="192.608378"></rect>
                            <path d="M21.5547871,5.71774808e-13 L247.14579,5.90358579e-13 C254.640859,5.65221385e-13 257.358752,0.780392306 260.098837,2.24580592 C262.838922,3.71121953 264.989357,5.86165444 266.454771,8.60173966 C267.920185,11.3418249 268.700577,14.059718 268.700577,21.5547871 L268.700577,76.0921988 L268.700577,76.0921988 L-1.89233657e-12,76.0921988 L-1.89356968e-12,21.5547871 C-1.8916201e-12,14.059718 0.780392306,11.3418249 2.24580592,8.60173966 C3.71121953,5.86165444 5.86165444,3.71121953 8.60173966,2.24580592 C11.3418249,0.780392306 14.059718,5.76019091e-13 21.5547871,5.71774808e-13 Z" id="矩形备份-2" fill="#04A6FF" transform="translate(134.350288, 38.046099) rotate(-360.000000) translate(-134.350288, -38.046099) "></path>
                            <path d="M21.5547871,5.37983083e-13 L247.14579,5.56566855e-13 C254.640859,5.3142966e-13 257.358752,0.780392306 260.098837,2.24580592 C262.838922,3.71121953 264.989357,5.86165444 266.454771,8.60173966 C267.920185,11.3418249 268.700577,14.059718 268.700577,21.5547871 L268.700577,76.0921988 L268.700577,76.0921988 L-1.62200277e-12,76.0921988 L-1.62323588e-12,21.5547871 C-1.6212863e-12,14.059718 0.780392306,11.3418249 2.24580592,8.60173966 C3.71121953,5.86165444 5.86165444,3.71121953 8.60173966,2.24580592 C11.3418249,0.780392306 14.059718,5.42227367e-13 21.5547871,5.37983083e-13 Z" id="矩形备份-2" fill="url(#radialGradient-5)" opacity="0.8" transform="translate(134.350288, 38.046099) rotate(-360.000000) translate(-134.350288, -38.046099) "></path>
                        </g>
                    </g>
                    <path d="M192.608378,192.608378 L268.700577,192.608378 L268.700577,247.14579 C268.700577,254.640859 267.920185,257.358752 266.454771,260.098837 C264.989357,262.838922 262.838922,264.989357 260.098837,266.454771 C257.358752,267.920185 254.640859,268.700577 247.14579,268.700577 L192.608378,268.700577 L192.608378,268.700577 L192.608378,192.608378 Z" id="矩形备份-4" fill="url(#linearGradient-6)" mask="url(#mask-2)" transform="translate(230.654477, 230.654477) rotate(-360.000000) translate(-230.654477, -230.654477) "></path>
                    <mask id="mask-8" fill="white">
                        <use xlink:href="#path-7"></use>
                    </mask>
                    <g id="shadow" fill="black" fill-opacity="1">
                        <use filter="url(#filter-9)" xlink:href="#path-7"></use>
                    </g>
                </g>
            </g>
        </g>
    </g>
</svg>